<svg width="60" height="21" viewBox="0 0 60 21" fill="none" xmlns="http://www.w3.org/2000/svg">
<path d="M5.17969 5.62314H7.2736L6.22692 3.06604L5.17969 5.62314Z" fill="white"/>
<path d="M16.3152 14.2069V15.3943H19.8368V16.6731H16.3152V18.0433H20.2173L22.0256 16.1251L20.3126 14.2069H16.3152Z" fill="white"/>
<path d="M43.8204 3.06604L42.6782 5.62314H44.8675L43.8204 3.06604Z" fill="white"/>
<path d="M26.4991 18.7732V13.5679L24.0244 16.1251L26.4991 18.7732Z" fill="white"/>
<path d="M31.1626 15.0292C31.0673 14.4813 30.6862 14.2069 30.1149 14.2069H28.1167V15.8507H30.2107C30.7817 15.8508 31.1626 15.577 31.1626 15.0292Z" fill="white"/>
<path d="M37.8242 15.6685C38.0146 15.577 38.1102 15.3028 38.1102 15.0293C38.2054 14.6644 38.0146 14.4814 37.8242 14.39C37.6344 14.2986 37.3485 14.2986 37.0634 14.2986H35.1594V15.76H37.0632C37.3483 15.76 37.6343 15.76 37.8242 15.6685Z" fill="white"/>
<path d="M51.5291 0.691406V1.78727L50.9585 0.691406H46.4857V1.78727L45.9144 0.691406H39.8232C38.7763 0.691406 37.9194 0.874225 37.1583 1.23947V0.691406H32.8757V0.782815V1.23947C32.3999 0.874357 31.8289 0.691406 31.0674 0.691406H15.7443L14.6969 2.97454L13.6502 0.691406H10.2241H8.79639V1.78727L8.32048 0.691406H8.22522H4.1328L2.22901 4.98344L0.040241 9.64085L0 9.73239H0.040241H4.89423H4.955L4.9895 9.64085L5.56081 8.27129H6.79802L7.36906 9.73239H12.8887V9.64085V8.63653L13.3649 9.73226H16.1247L16.6003 8.63653V9.64085V9.73239H18.7893H29.7345H29.8298V7.35785H30.0206C30.2107 7.35785 30.2107 7.35785 30.2107 7.63195V9.64099H37.0634V9.09306C37.6344 9.36741 38.4904 9.64099 39.6326 9.64099H42.4883L43.0593 8.18014H44.3914L44.9624 9.64099H50.4823V8.72794V8.27142L51.3393 9.64099H51.5291H51.6246H55.8123V0.691406H51.5294H51.5291V0.691406ZM19.2655 8.36283H18.3136H17.7427V7.81529V3.33991L17.6474 3.54939V3.5469L15.4333 8.36283H15.3632H14.8542H14.0306L11.7466 3.33991V8.36283H8.51087L7.8447 6.993H4.60844L3.94213 8.36283H2.26911L5.08462 1.97009H7.46378L10.1286 8.0886V1.97009H10.6995H12.6501L12.695 2.06163H12.6983L13.8991 4.56934L14.7614 6.44823L14.7919 6.35353L16.6953 1.97022H19.2654V8.36283H19.2655V8.36283ZM25.8328 3.33991H22.1209V4.52705H25.7375V5.80547H22.1209V7.08441H25.8328V8.45385H20.503V1.97022H25.8328V3.33991ZM32.6211 5.69476C32.6236 5.69686 32.6267 5.6983 32.6297 5.70027C32.6657 5.73678 32.6965 5.77342 32.7228 5.80849C32.9051 6.0378 33.0525 6.37888 33.0599 6.87901C33.0605 6.88767 33.0609 6.89621 33.0614 6.90488C33.0614 6.90987 33.0624 6.9142 33.0624 6.91932C33.0624 6.92221 33.0621 6.92445 33.0621 6.9272C33.0643 6.97751 33.0657 7.02886 33.0657 7.08441V8.36296H31.6383V7.63208C31.6383 7.26684 31.6383 6.71878 31.3524 6.35353C31.2625 6.26724 31.1714 6.21038 31.0723 6.16993C30.9297 6.08127 30.6594 6.07983 30.2107 6.07983H28.4971V8.36296H26.8795V1.97022H30.4964C31.3524 1.97022 31.9237 1.97022 32.3998 2.24418C32.8661 2.51289 33.1478 2.95851 33.1585 3.66418C33.1364 4.63606 32.4863 5.16928 32.0188 5.34908C32.0188 5.34908 32.3364 5.41041 32.6211 5.69476ZM35.826 8.36283H34.2079V1.97009H35.826V8.36283ZM54.3851 8.36283H52.2909L49.2455 3.52247V7.54067L49.2355 7.53121V8.36677H47.6276V8.36296H46.0095L45.4385 6.99313H42.1071L41.536 8.45398H39.7278C38.9669 8.45398 38.0145 8.27155 37.4437 7.72362C36.8727 7.17569 36.5874 6.44507 36.5874 5.25806C36.5874 4.34489 36.7776 3.43106 37.4437 2.7007C37.9192 2.15238 38.7762 1.97022 39.8229 1.97022H41.346V3.33991H39.8229C39.2518 3.33991 38.9669 3.43093 38.5854 3.70542C38.3004 3.97925 38.1099 4.52705 38.1099 5.16626C38.1099 5.89701 38.2052 6.35353 38.5854 6.71878C38.8716 6.99314 39.252 7.08455 39.7278 7.08455H40.3939L42.5827 2.06189H43.5349H44.9623L47.6275 8.18041V7.86835V5.80573V5.62331V2.06202H50.0066L52.7662 6.53661V2.06202H54.3849V8.36309H54.3851V8.36283Z" fill="white"/>
<path d="M31.2639 4.63258C31.2917 4.60408 31.3169 4.57177 31.3382 4.53473C31.4244 4.40379 31.5233 4.16791 31.47 3.84601C31.4678 3.81646 31.4622 3.78914 31.4556 3.76274C31.4539 3.75539 31.4541 3.74895 31.4521 3.7416L31.4511 3.74173C31.4038 3.58531 31.2829 3.48917 31.1623 3.43086C30.9715 3.33984 30.686 3.33984 30.4006 3.33984H28.4968V4.80121H30.4006C30.686 4.80121 30.9717 4.80121 31.1623 4.70967C31.1909 4.69575 31.2164 4.67684 31.2409 4.65543L31.2412 4.65661C31.2413 4.65648 31.251 4.64676 31.2639 4.63258Z" fill="white"/>
<path d="M60.0002 17.4953C60.0002 16.8561 59.8101 16.2166 59.5247 15.7601V11.6507H59.5203V11.3764C59.5203 11.3764 55.5311 11.3764 54.9373 11.3764C54.3438 11.3764 53.6236 11.9242 53.6236 11.9242V11.3764H49.2458C48.5792 11.3764 47.7232 11.5592 47.342 11.9242V11.3764H39.538V11.6507V11.924C38.9673 11.4678 37.9195 11.3762 37.444 11.3762H32.3045V11.6506V11.9239C31.8288 11.4676 30.6861 11.3761 30.1148 11.3761H24.4052L23.0725 12.7461L21.8351 11.3761H21.4367H20.7883H13.2698V11.6505V12.3719V20.6002H21.6451L23.0213 19.2793L24.2141 20.6002H24.3097H29.1356H29.3543H29.4496H29.5443V19.687V18.4999H30.0205C30.6861 18.4999 31.5431 18.4999 32.2093 18.2255V20.5084V20.6914H36.4922V20.5084V18.3169H36.6821C36.968 18.3169 36.968 18.3169 36.968 18.5909V20.5084V20.6914H49.9113C50.7685 20.6914 51.6245 20.5084 52.1003 20.1431V20.5084V20.6914H56.1931C57.0492 20.6914 57.9064 20.6002 58.4775 20.2347C59.3537 19.7302 59.906 18.8373 59.9881 17.7723C59.992 17.7407 59.9968 17.7092 59.9998 17.6776L59.9942 17.6724C59.9977 17.6133 60.0002 17.5549 60.0002 17.4953ZM30.0206 16.9475H28.1167V17.2208V17.769V18.317V19.3216H24.9884L23.1677 17.3123L23.1614 17.319L23.0725 17.2208L20.9787 19.3216H14.8876V12.9291H21.074L22.7641 14.7054L23.1194 15.0774L23.1676 15.0295L25.1665 12.9293H30.2106C31.1896 12.9293 32.2858 13.1611 32.7012 14.1168C32.7512 14.3061 32.7802 14.5165 32.7802 14.7555C32.7802 16.5818 31.4477 16.9475 30.0206 16.9475ZM39.538 16.8559C39.7281 17.1292 39.8233 17.4951 39.8233 18.0433V19.3215H38.2056V18.4999C38.2056 18.134 38.2056 17.4951 37.9197 17.2208C37.7298 16.9475 37.3486 16.9475 36.778 16.9475H35.065V19.3216H33.4472V12.8377H37.0635C37.8244 12.8377 38.4906 12.8377 38.9673 13.1114C39.4428 13.3857 39.8233 13.8423 39.8233 14.5729C39.8233 15.5773 39.1574 16.1252 38.6814 16.3081C39.1574 16.49 39.4428 16.6732 39.538 16.8559ZM46.1052 14.207H42.3929V15.3943H46.0097V16.6731H42.3929V17.9518H46.1052V19.3215H40.7754V12.8376H46.1052V14.207ZM50.1022 19.3216H47.0565V17.9519H50.1022C50.3872 17.9519 50.578 17.9519 50.7688 17.7691C50.8641 17.6776 50.9586 17.4953 50.9586 17.3125C50.9586 17.1294 50.8641 16.9476 50.7688 16.8561C50.6733 16.7648 50.4826 16.6734 50.1972 16.6734C48.6743 16.582 46.8661 16.6734 46.8661 14.6645C46.8661 13.7512 47.4371 12.7464 49.1504 12.7464H52.291V14.2987H49.3408C49.0554 14.2987 48.8647 14.2987 48.6742 14.3901C48.4844 14.4817 48.4844 14.6645 48.4844 14.8469C48.4844 15.121 48.6742 15.2124 48.8646 15.303C49.0554 15.3946 49.2455 15.3946 49.4356 15.3946H50.2923C51.149 15.3946 51.7199 15.5772 52.1006 15.9426C52.3862 16.2167 52.5766 16.6734 52.5766 17.3125C52.5766 18.6819 51.7201 19.3216 50.1022 19.3216ZM58.2872 18.6819C57.907 19.0477 57.2404 19.3216 56.2883 19.3216H53.2434V17.9519H56.2881C56.5738 17.9519 56.7646 17.9519 56.9547 17.7691C57.0496 17.6776 57.1451 17.4953 57.1451 17.3125C57.1451 17.1294 57.0496 16.9476 56.9547 16.8561C56.8595 16.7648 56.6693 16.6734 56.3837 16.6734C54.8614 16.582 53.0526 16.6734 53.0526 14.6646C53.0526 13.7966 53.5701 13.0125 54.8464 12.7797C54.9991 12.7595 55.1603 12.7464 55.3369 12.7464H58.4779V14.2987H56.3837H55.6225H55.5273C55.2416 14.2987 55.0515 14.2987 54.8614 14.3901C54.7655 14.4817 54.6703 14.6645 54.6703 14.8469C54.6703 15.121 54.7655 15.2124 55.0515 15.303C55.2416 15.3946 55.432 15.3946 55.6225 15.3946H55.7171H56.4788C56.8948 15.3946 57.2093 15.4438 57.4972 15.5409C57.7608 15.6324 58.6335 16.007 58.8287 16.9848C58.8456 17.0872 58.8581 17.1941 58.8581 17.3125C58.8581 17.8605 58.6677 18.317 58.2872 18.6819Z" fill="white"/>
</svg>
